<svg xmlns="http://www.w3.org/2000/svg" height="750pt" version="1.1" viewBox="-62 0 750 750" width="750pt">
<g id="surface1">
<path d="M 612.5 0 L 162.5 0 C 155.59375 0 150 5.59375 150 12.5 L 150 100 L 175 100 L 175 25 L 600 25 L 600 600 L 500 600 L 500 625 L 612.5 625 C 619.40625 625 625 619.40625 625 612.5 L 625 12.5 C 625 5.59375 619.40625 0 612.5 0 Z M 612.5 0 " style=" stroke:none;fill-rule:nonzero;fill:rgb(0%,0%,0%);fill-opacity:1;" />
<path d="M 321.335938 128.664062 C 318.992188 126.320312 315.816406 125 312.5 125 L 12.5 125 C 5.59375 125 0 130.59375 0 137.5 L 0 737.5 C 0 744.40625 5.59375 750 12.5 750 L 462.5 750 C 469.40625 750 475 744.40625 475 737.5 L 475 287.5 C 475 284.183594 473.679688 281.007812 471.335938 278.664062 Z M 325 167.675781 L 432.324219 275 L 325 275 Z M 25 725 L 25 150 L 300 150 L 300 287.5 C 300 294.40625 305.59375 300 312.5 300 L 450 300 L 450 725 Z M 25 725 " style=" stroke:none;fill-rule:nonzero;fill:rgb(0%,0%,0%);fill-opacity:1;" />
<path d="M 75 250 L 150 250 L 150 275 L 75 275 Z M 75 250 " style=" stroke:none;fill-rule:nonzero;fill:rgb(0%,0%,0%);fill-opacity:1;" />
<path d="M 175 250 L 275 250 L 275 275 L 175 275 Z M 175 250 " style=" stroke:none;fill-rule:nonzero;fill:rgb(0%,0%,0%);fill-opacity:1;" />
<path d="M 75 325 L 300 325 L 300 350 L 75 350 Z M 75 325 " style=" stroke:none;fill-rule:nonzero;fill:rgb(0%,0%,0%);fill-opacity:1;" />
<path d="M 325 325 L 400 325 L 400 350 L 325 350 Z M 325 325 " style=" stroke:none;fill-rule:nonzero;fill:rgb(0%,0%,0%);fill-opacity:1;" />
<path d="M 75 400 L 400 400 L 400 425 L 75 425 Z M 75 400 " style=" stroke:none;fill-rule:nonzero;fill:rgb(0%,0%,0%);fill-opacity:1;" />
<path d="M 75 475 L 225 475 L 225 500 L 75 500 Z M 75 475 " style=" stroke:none;fill-rule:nonzero;fill:rgb(0%,0%,0%);fill-opacity:1;" />
<path d="M 250 475 L 400 475 L 400 500 L 250 500 Z M 250 475 " style=" stroke:none;fill-rule:nonzero;fill:rgb(0%,0%,0%);fill-opacity:1;" />
<path d="M 75 550 L 175 550 L 175 575 L 75 575 Z M 75 550 " style=" stroke:none;fill-rule:nonzero;fill:rgb(0%,0%,0%);fill-opacity:1;" />
<path d="M 200 550 L 400 550 L 400 575 L 200 575 Z M 200 550 " style=" stroke:none;fill-rule:nonzero;fill:rgb(0%,0%,0%);fill-opacity:1;" />
<path d="M 75 625 L 400 625 L 400 650 L 75 650 Z M 75 625 " style=" stroke:none;fill-rule:nonzero;fill:rgb(0%,0%,0%);fill-opacity:1;" />
<path d="M 462.5 200 L 550 200 L 550 225 L 462.5 225 Z M 462.5 200 " style=" stroke:none;fill-rule:nonzero;fill:rgb(0%,0%,0%);fill-opacity:1;" />
<path d="M 387.5 125 L 550 125 L 550 150 L 387.5 150 Z M 387.5 125 " style=" stroke:none;fill-rule:nonzero;fill:rgb(0%,0%,0%);fill-opacity:1;" />
<path d="M 500 275 L 550 275 L 550 300 L 500 300 Z M 500 275 " style=" stroke:none;fill-rule:nonzero;fill:rgb(0%,0%,0%);fill-opacity:1;" />
<path d="M 500 350 L 550 350 L 550 375 L 500 375 Z M 500 350 " style=" stroke:none;fill-rule:nonzero;fill:rgb(0%,0%,0%);fill-opacity:1;" />
<path d="M 500 425 L 550 425 L 550 450 L 500 450 Z M 500 425 " style=" stroke:none;fill-rule:nonzero;fill:rgb(0%,0%,0%);fill-opacity:1;" />
<path d="M 500 500 L 550 500 L 550 525 L 500 525 Z M 500 500 " style=" stroke:none;fill-rule:nonzero;fill:rgb(0%,0%,0%);fill-opacity:1;" />
</g>
</svg>